<svg width="60" height="24" viewBox="0 0 60 24" fill="none" xmlns="http://www.w3.org/2000/svg">
<g filter="url(#filter0_iiii_1_936)">
<rect width="60" height="24" fill="#C0C0C0"/>
<path d="M17.5616 10.611H20.2016V11.491H17.5616V14.131H20.2016V15H16.6926V7.091H20.2016V7.971H17.5616V10.611ZM21.0816 14.131H20.2016V11.491H21.0816V14.131ZM21.0816 10.611H20.2016V7.971H21.0816V10.611ZM24.8326 15.011H23.0616V14.131H24.8326V15.011ZM23.0616 14.131H22.1926V9.731H23.0616V14.131ZM25.7016 9.731H26.5816V15H25.7016V14.131H24.8216V13.251H25.7016V9.731ZM29.4416 10.611H28.5616V14.131H27.6926V7.971H28.5616V9.731H29.4416V10.611ZM29.4416 15.011H28.5616V14.131H29.4416V15.011ZM32.299 10.611H31.419V14.131H30.55V7.971H31.419V9.731H32.299V10.611ZM32.299 15.011H31.419V14.131H32.299V15.011ZM36.9164 15.011H34.2764V14.131H36.9164V15.011ZM34.2764 14.131H33.4074V10.611H34.2764V14.131ZM36.9164 10.611H34.2764V9.731H36.9164V10.611ZM37.7964 14.131H36.9164V10.611H37.7964V14.131ZM39.7764 9.731V10.611H40.6564V11.491H39.7764V15H38.9074V9.731H39.7764ZM43.2964 15.011H42.4164V10.611H43.2964V15.011ZM42.4164 10.611H40.6564V9.731H42.4164V10.611Z" fill="black"/>
</g>
<defs>
<filter id="filter0_iiii_1_936" x="0" y="0" width="60" height="24" filterUnits="userSpaceOnUse" color-interpolation-filters="sRGB">
<feFlood flood-opacity="0" result="BackgroundImageFix"/>
<feBlend mode="normal" in="SourceGraphic" in2="BackgroundImageFix" result="shape"/>
<feColorMatrix in="SourceAlpha" type="matrix" values="0 0 0 0 0 0 0 0 0 0 0 0 0 0 0 0 0 0 127 0" result="hardAlpha"/>
<feOffset dx="2" dy="2"/>
<feComposite in2="hardAlpha" operator="arithmetic" k2="-1" k3="1"/>
<feColorMatrix type="matrix" values="0 0 0 0 0.87451 0 0 0 0 0.87451 0 0 0 0 0.87451 0 0 0 1 0"/>
<feBlend mode="normal" in2="shape" result="effect1_innerShadow_1_936"/>
<feColorMatrix in="SourceAlpha" type="matrix" values="0 0 0 0 0 0 0 0 0 0 0 0 0 0 0 0 0 0 127 0" result="hardAlpha"/>
<feOffset dx="-2" dy="-2"/>
<feComposite in2="hardAlpha" operator="arithmetic" k2="-1" k3="1"/>
<feColorMatrix type="matrix" values="0 0 0 0 0.498039 0 0 0 0 0.498039 0 0 0 0 0.498039 0 0 0 1 0"/>
<feBlend mode="normal" in2="effect1_innerShadow_1_936" result="effect2_innerShadow_1_936"/>
<feColorMatrix in="SourceAlpha" type="matrix" values="0 0 0 0 0 0 0 0 0 0 0 0 0 0 0 0 0 0 127 0" result="hardAlpha"/>
<feOffset dx="1" dy="1"/>
<feComposite in2="hardAlpha" operator="arithmetic" k2="-1" k3="1"/>
<feColorMatrix type="matrix" values="0 0 0 0 1 0 0 0 0 1 0 0 0 0 1 0 0 0 1 0"/>
<feBlend mode="normal" in2="effect2_innerShadow_1_936" result="effect3_innerShadow_1_936"/>
<feColorMatrix in="SourceAlpha" type="matrix" values="0 0 0 0 0 0 0 0 0 0 0 0 0 0 0 0 0 0 127 0" result="hardAlpha"/>
<feOffset dx="-1" dy="-1"/>
<feComposite in2="hardAlpha" operator="arithmetic" k2="-1" k3="1"/>
<feColorMatrix type="matrix" values="0 0 0 0 0 0 0 0 0 0 0 0 0 0 0 0 0 0 1 0"/>
<feBlend mode="normal" in2="effect3_innerShadow_1_936" result="effect4_innerShadow_1_936"/>
</filter>
</defs>
</svg>
